<svg xmlns="http://www.w3.org/2000/svg" width="361.994" height="91.867" viewBox="0 0 361.994 91.867">
  <g id="Logo_1" data-name="Logo 1" transform="translate(-38.73 -20.23)">
    <path id="Path_1" data-name="Path 1" d="M95.808,137.127a32.07,32.07,0,0,1-.337,4.619,31.537,31.537,0,0,1-27.337,26.663l-.15.02H38.73V128.277H52.073v26.806H67.087a18.217,18.217,0,0,0,14.99-14.214,18.457,18.457,0,0,0,.388-3.741,18.138,18.138,0,0,0-17.326-18.153H38.73V105.6l27.962.1a31.5,31.5,0,0,1,29.115,31.425Z" transform="translate(0 -56.333)" fill="#d82f5a"/>
    <path id="Path_2" data-name="Path 2" d="M247.783,105.25V168.2H234.44V105.25Z" transform="translate(-129.142 -56.102)"/>
    <path id="Path_3" data-name="Path 3" d="M361.07,128.6v13.35h0v26.711H333.6a32.237,32.237,0,0,1-22.527-9.041,30.854,30.854,0,0,1,0-44.622A32.241,32.241,0,0,1,333.6,105.95h27.357v13.343H330.846c-9.231,1.3-16.167,9.017-16.167,18.01s6.935,16.707,16.167,18.007h16.881V141.94H332.156l-.673-1.456-3.85-8.34-1.639-3.551Z" transform="translate(-173.413 -56.564)" fill="#00adab"/>
    <path id="Path_4" data-name="Path 4" d="M523.993,105.25V168.2H510.65V105.25Z" transform="translate(-311.404 -56.102)"/>
    <path id="Path_5" data-name="Path 5" d="M634.328,105.63v13.343H612.26v0H598.917v0H577.74V105.63Zm-35.411,62.816v-40.17H612.26v40.17Z" transform="translate(-355.675 -56.353)" fill="#e78733"/>
    <path id="Path_6" data-name="Path 6" d="M742.42,127.059l8.395,15.071-13.6,24.581L736.5,168H719.76l2.054-3.714ZM792.487,168H775.749l-.714-1.289-12.527-22.639-6.136-11.085-.245-.442-8.395-15.071.027-.051.67-1.214,5.463-9.867.643-1.388h3.208l.619,1.381,5.466,9.871,26.609,48.078Z" transform="translate(-449.389 -55.904)"/>
    <path id="Path_7" data-name="Path 7" d="M1006,154.212v13.343H956V104.28h13.343v49.932Z" transform="translate(-605.276 -55.462)" fill="#3e97d3"/>
    <g id="Group_5" data-name="Group 5" transform="translate(39.057 20.23)">
      <path id="Path_8" data-name="Path 8" d="M46.833,21.206a6.989,6.989,0,0,1,3.65-.976v4.837H49.17q-4.964,0-4.966,4.612V38.23H39.69V20.485h4.517V23.88A7.413,7.413,0,0,1,46.833,21.206Z" transform="translate(-39.69 -20.23)"/>
      <path id="Path_9" data-name="Path 9" d="M89.895,21.408a8,8,0,0,1,3.252,3.156,9.592,9.592,0,0,1,1.184,4.854,9.5,9.5,0,0,1-1.184,4.837,8.109,8.109,0,0,1-3.252,3.156,10.374,10.374,0,0,1-9.32,0,8.109,8.109,0,0,1-3.252-3.156,9.509,9.509,0,0,1-1.184-4.837,9.6,9.6,0,0,1,1.184-4.854,7.978,7.978,0,0,1,3.252-3.156,10.519,10.519,0,0,1,9.32,0Zm-7.864,4.15a5.276,5.276,0,0,0-1.313,3.861,5.276,5.276,0,0,0,1.313,3.861,4.525,4.525,0,0,0,6.408,0,5.27,5.27,0,0,0,1.313-3.861,5.276,5.276,0,0,0-1.313-3.861,4.525,4.525,0,0,0-6.408,0Z" transform="translate(-63.742 -20.289)"/>
      <path id="Path_10" data-name="Path 10" d="M138.227,20.98l4.837,12.044,4.483-12.044h4.966l-10.86,26.2h-5l4-8.969L133.2,20.98Z" transform="translate(-101.394 -20.725)"/>
      <path id="Path_11" data-name="Path 11" d="M210.968,30.276h-13a4.873,4.873,0,0,0,1.282,3.49,4.116,4.116,0,0,0,2.946,1.122,4.267,4.267,0,0,0,2.609-.769,3.42,3.42,0,0,0,1.33-2.082H210.9a7.619,7.619,0,0,1-1.507,3.33,7.843,7.843,0,0,1-2.963,2.306A10.147,10.147,0,0,1,197.8,37.4a7.772,7.772,0,0,1-3.139-3.156,9.924,9.924,0,0,1-1.122-4.837,10.02,10.02,0,0,1,1.122-4.854A7.651,7.651,0,0,1,197.8,21.4a9.574,9.574,0,0,1,4.612-1.088,9.357,9.357,0,0,1,4.6,1.088,7.717,7.717,0,0,1,3.044,2.993,8.708,8.708,0,0,1,1.071,4.34A8.381,8.381,0,0,1,210.968,30.276Zm-5.527-5.286a4.332,4.332,0,0,0-3.027-1.122,4.433,4.433,0,0,0-3.075,1.122,4.587,4.587,0,0,0-1.378,3.3h8.616A3.965,3.965,0,0,0,205.441,24.99Z" transform="translate(-141.21 -20.283)"/>
      <path id="Path_12" data-name="Path 12" d="M262.1,38.731l-4.034-5.7-3.395,5.7h-4.966l5.861-9.255-5.99-8.486h5.061L258.58,26.6l3.395-5.605h4.963l-5.956,9,6.18,8.745H262.1Z" transform="translate(-178.189 -20.731)"/>
    </g>
  </g>
</svg>
